<?xml version="1.0" standalone="no"?>
<!DOCTYPE svg PUBLIC "-//W3C//DTD SVG 20010904//EN"
 "http://www.w3.org/TR/2001/REC-SVG-20010904/DTD/svg10.dtd">
<svg version="1.0" xmlns="http://www.w3.org/2000/svg"
 width="72.000000pt" height="72.000000pt" viewBox="0 0 72.000000 72.000000"
 preserveAspectRatio="xMidYMid meet">
<metadata>
Created by potrace 1.14, written by Peter Selinger 2001-2017
</metadata>
<g transform="translate(0.000000,72.000000) scale(0.100000,-0.100000)"
fill="#000000" stroke="none">
<path d="M255 704 c-33 -9 -72 -12 -115 -8 -82 8 -90 0 -101 -99 -4 -39 -14
-93 -23 -119 -11 -35 -15 -90 -14 -205 1 -221 4 -227 152 -258 96 -21 106 -15
81 50 -24 65 -26 315 -2 361 14 27 55 64 71 64 3 0 15 -31 26 -70 11 -38 25
-70 30 -70 8 0 16 23 36 103 8 37 19 41 49 21 47 -31 57 -66 59 -207 1 -72 -2
-157 -7 -189 -13 -77 -5 -86 62 -64 27 9 57 16 66 16 27 0 72 31 85 58 16 36
12 322 -6 386 -8 28 -21 87 -30 131 -21 107 -27 112 -106 96 -48 -9 -71 -10
-93 -1 -47 18 -164 20 -220 4z m204 -44 c50 -13 123 -63 155 -105 48 -62 56
-104 57 -284 0 -158 -1 -167 -22 -183 -28 -23 -54 -23 -79 2 -18 18 -20 33
-20 166 0 172 -3 179 -93 277 -87 92 -110 89 -217 -26 -66 -73 -70 -86 -70
-251 0 -125 -3 -152 -17 -168 -20 -22 -61 -23 -85 -1 -16 14 -18 34 -18 183 0
187 8 224 62 291 77 96 214 135 347 99z"/>
</g>
</svg>
